<?xml version="1.0" encoding="UTF-8"?>
<svg version="1.1" xmlns="http://www.w3.org/2000/svg" width="360" height="360">
<path d="M0 0 C118.8 0 237.6 0 360 0 C360 118.8 360 237.6 360 360 C241.2 360 122.4 360 0 360 C0 241.2 0 122.4 0 0 Z " fill="#000000" transform="translate(0,0)"/>
<path d="M0 0 C57.75 0 115.5 0 175 0 C173.09310892 6.3563036 171.15574822 12.59244105 168.8984375 18.81640625 C168.61650543 19.59894272 168.33457336 20.38147919 168.0440979 21.18772888 C167.45553321 22.81907377 166.86562977 24.44993626 166.27441406 26.08032227 C165.3662781 28.58657045 164.46415637 31.09493002 163.5625 33.60351562 C162.9873346 35.19544096 162.41182654 36.78724255 161.8359375 38.37890625 C161.56615082 39.12983047 161.29636414 39.8807547 161.0184021 40.6544342 C159.1149466 45.8850534 159.1149466 45.8850534 158 47 C156.58321089 47.09550698 155.16168759 47.12188483 153.74168396 47.12025452 C152.36390778 47.12231651 152.36390778 47.12231651 150.95829773 47.12442017 C149.43484489 47.11902725 149.43484489 47.11902725 147.88061523 47.11352539 C146.81733002 47.11367142 145.7540448 47.11381744 144.65853882 47.1139679 C141.12520342 47.11326825 137.59192 47.10547343 134.05859375 47.09765625 C131.61621632 47.09579225 129.17383851 47.09436827 126.73146057 47.09336853 C120.28865536 47.08954189 113.84587252 47.07971037 107.40307617 47.06866455 C100.83447574 47.05845356 94.2658717 47.05387158 87.69726562 47.04882812 C74.79816751 47.03808823 61.89908494 47.02120104 49 47 C49.60080447 49.24189772 50.21224234 51.48094752 50.828125 53.71875 C51.1674707 54.96591797 51.50681641 56.21308594 51.85644531 57.49804688 C54.86006904 66.69616359 61.80299976 72.33812183 70.203125 76.640625 C74.38660471 78.3652022 78.33098622 78.49732949 82.8125 78.4375 C83.60640137 78.42992676 84.40030273 78.42235352 85.21826172 78.41455078 C97.3631637 78.07422524 105.68024489 72.50300963 114 64 C114.73863281 64.68964844 115.47726563 65.37929687 116.23828125 66.08984375 C122.08391462 71.51578066 128.02534653 76.71627738 134.2421875 81.71875 C138.98349533 85.64073834 143.48701397 89.81872281 148 94 C141.26124516 109.17956632 123.76984932 118.97503626 109 125 C90.3338217 132.172674 68.16942923 131.11394886 49.921875 123.3046875 C29.44598842 113.974088 14.32934772 98.68513603 5.1875 78 C-4.5000944 51.42831252 0 31.88193909 0 0 Z " fill="#0C94FD" transform="translate(87,167)"/>
<path d="M0 0 C-4.3325693 9.1406645 -9.31897814 17.7734432 -14.49169922 26.45410156 C-17.37854784 31.32688522 -20.21535633 36.22895224 -23.0625 41.125 C-27.1150617 48.08093856 -31.17776281 55.03001643 -35.3125 61.9375 C-35.86272827 62.85909912 -35.86272827 62.85909912 -36.42407227 63.79931641 C-38.87584619 67.87584619 -38.87584619 67.87584619 -40 69 C-42.30356433 69.09711942 -44.61017658 69.1218657 -46.91578674 69.12025452 C-48.01350219 69.12153615 -48.01350219 69.12153615 -49.1333937 69.12284368 C-51.60400879 69.12450066 -54.0745571 69.11897359 -56.54516602 69.11352539 C-58.30883787 69.11324354 -60.07250985 69.11340121 -61.83618164 69.1139679 C-66.63969843 69.11425595 -71.44319047 69.10835792 -76.24670148 69.10139394 C-81.26089685 69.09516174 -86.27509273 69.09455671 -91.28929138 69.09336853 C-100.7913676 69.09025482 -110.29343238 69.08204089 -119.79550356 69.07201904 C-130.61031339 69.06085914 -141.42512375 69.05534776 -152.2399379 69.05032361 C-174.49329833 69.03985831 -196.74664845 69.0222581 -219 69 C-219.09914961 63.41330092 -219.17160105 57.82711814 -219.21972656 52.23974609 C-219.23979629 50.34056675 -219.26705851 48.44144885 -219.30175781 46.54248047 C-219.35048109 43.80681161 -219.37301507 41.07196229 -219.390625 38.3359375 C-219.41127014 37.49195404 -219.43191528 36.64797058 -219.45318604 35.77841187 C-219.45523246 30.35708904 -218.62277487 27.29047309 -215 23 C-204.8402633 15.21807402 -188.53283694 16.30212935 -176.16210938 15.21240234 C-174.2963757 15.04497096 -172.43067423 14.87718024 -170.56500244 14.70906067 C-165.53700517 14.25705065 -160.50856299 13.81018678 -155.48000908 13.36441755 C-150.20505656 12.89603499 -144.93049758 12.42325928 -139.65588379 11.95108032 C-130.80990344 11.15985654 -121.96364074 10.37185535 -113.1171875 9.5859375 C-102.89143328 8.67745627 -92.66608711 7.76449218 -82.44095755 6.84900892 C-72.58841815 5.96693406 -62.73565471 5.08738909 -52.88276672 4.20921707 C-48.69462261 3.83592726 -44.50654866 3.46186379 -40.31852722 3.08720016 C-35.39386807 2.64679671 -30.46901365 2.20864397 -25.54399872 1.77223778 C-23.73673017 1.61174909 -21.92952817 1.45050905 -20.12239838 1.2884655 C-17.65741903 1.06756558 -15.19221288 0.84939525 -12.72692871 0.63192749 C-11.65315609 0.53475467 -11.65315609 0.53475467 -10.5576911 0.43561876 C-7.02687325 0.12718664 -3.54449268 -0.06940345 0 0 Z " fill="#58FDA0" transform="translate(306,82)"/>
</svg>
